<svg width="205" height="36" viewBox="0 0 205 36" fill="none" xmlns="http://www.w3.org/2000/svg">
<g clip-path="url(#clip0_299_723)">
<path d="M197.011 14.25H204.096L205 8.7H197.765L198.669 0.45H191.886L190.982 8.85H180.882C181.335 6.6 181.787 6.45 182.239 6.15C182.842 5.55 185.103 5.4 185.103 5.4H188.268L189.022 0C189.022 0 185.706 0 183.746 0.15C181.787 0.3 178.772 1.2 177.114 3C175.305 4.8 174.401 8.25 174.401 8.25V8.85H168.824C168.824 8.85 169.577 9.6 170.783 10.95C171.838 12.3 171.688 13.95 171.688 13.95H174.099L171.386 35.55H178.018C178.018 35.55 179.526 24.15 180.581 15.15C180.581 14.7 180.732 14.25 180.732 13.8H190.982C190.982 13.8 189.474 25.2 189.324 27.6C189.022 29.85 190.077 32.4 191.585 33.6C192.941 34.8 195.956 35.55 195.956 35.55H202.287L203.04 29.7C203.04 29.7 202.136 29.7 199.724 29.7C197.463 29.7 197.162 28.95 196.559 28.35C196.107 27.75 196.257 24.3 196.257 24.3L197.011 14.25Z" fill="white"/>
<path d="M166.864 10.6499C165.206 8.69994 160.232 8.39994 156.463 8.39994C156.463 8.39994 155.408 8.39994 154.956 8.39994C154.504 8.39994 149.228 8.24994 146.213 10.9499C143.199 13.4999 140.787 19.7999 140.787 25.1999C140.787 30.5999 142.596 32.5499 144.404 34.0499C146.213 35.6999 152.544 35.9999 153.75 35.9999C154.956 35.9999 160.684 36.2999 164.452 33.1499C168.221 29.9999 169.426 23.3999 169.426 18.8999C169.728 14.5499 168.522 12.5999 166.864 10.6499ZM162.643 20.5499C162.191 24.2999 161.588 27.5999 159.478 28.7999C157.368 29.8499 156.463 30.1499 153.901 30.1499C151.338 30.1499 149.831 29.3999 149.077 28.7999C148.324 28.0499 147.721 26.6999 147.721 25.0499C147.721 23.3999 148.474 17.6999 149.529 16.4999C150.585 15.2999 151.338 14.5499 152.544 14.2499C153.75 13.9499 156.162 13.7999 156.162 13.7999C156.162 13.7999 160.382 14.0999 161.287 14.9999C162.191 15.8999 163.096 16.7999 162.643 20.5499Z" fill="white"/>
<path d="M140.636 0.449951H119.382C119.382 0.449951 115.463 1.04995 114.107 2.69995C112.901 4.34995 111.243 6.29995 111.243 10.65C111.243 14.85 112.298 17.1 116.066 18.45C119.835 19.8 130.235 23.25 130.235 23.25C130.235 23.25 132.195 24 131.592 26.1C131.14 28.2 130.537 29.1 127.371 29.1C124.206 29.1 109.434 29.1 109.434 29.1L108.68 35.55H130.687C130.687 35.55 139.43 35.85 139.43 24.75C139.581 18.75 135.059 17.25 135.059 17.25L120.437 12.3C120.437 12.3 118.779 11.55 118.779 9.89995C118.779 8.24995 119.533 6.44995 121.643 6.44995C123.754 6.44995 140.033 6.44995 140.033 6.44995L140.636 0.449951Z" fill="white"/>
<path d="M91.6471 0.449951H98.4302L97.5257 8.69995H104.761L103.857 14.25H96.7721L95.2647 24.4499C95.2647 24.4499 94.9632 27.9 95.5662 28.5C96.0184 29.1 96.3199 29.85 98.7316 29.85C100.993 29.85 102.048 29.85 102.048 29.85L101.294 35.7H94.9632C94.9632 35.7 91.9485 34.95 90.5919 33.75C89.2353 32.55 88.1801 30.15 88.3309 27.75C88.4816 25.5 89.989 13.95 89.989 13.95H88.0294C88.0294 13.95 88.1801 12.3 87.125 10.95C86.0699 9.59995 85.1654 8.84995 85.1654 8.84995H90.7427L91.6471 0.449951Z" fill="#1096D4"/>
<path d="M85.0147 11.25C83.9596 10.05 82 8.84995 79.4375 8.84995C76.875 8.84995 66.9265 8.84995 66.9265 8.84995C66.9265 8.84995 65.2684 8.84995 64.2132 9.89995C63.3088 10.95 62.8566 12.6 62.5551 14.7C62.2537 16.8 60.5956 30 60.5956 30H42.9596C42.9596 30 40.5478 29.4 40.5478 27C40.5478 24.75 40.5478 24.6 40.5478 24.6H55.4706C55.4706 24.6 57.7316 24.6 58.636 23.4C59.5404 22.2 60.2941 20.55 60.2941 17.55C60.2941 14.7 59.8419 12.6 58.0331 10.95C56.2243 9.29995 52.1544 8.69995 48.8382 8.69995C45.5221 8.69995 42.5073 8.99995 40.5478 10.05C38.5882 11.1 36.1765 13.5 35.4228 15.45C34.6691 17.4 33.614 22.2 33.614 25.8C33.614 29.4 34.0662 32.0999 35.875 33.5999C37.6838 35.0999 39.1912 35.7 39.4926 35.7C39.7941 35.85 40.3971 35.7 40.3971 35.7H66.625L69.3382 14.85C69.3382 14.85 69.489 14.1 70.3934 14.1C71.4485 14.1 76.5735 14.1 76.5735 14.1C76.5735 14.1 78.3823 14.4 78.8346 14.85C79.2868 15.45 79.739 16.05 79.739 17.55C79.739 19.05 77.4779 35.7 77.4779 35.7H84.4118L86.6728 17.25C86.6728 17.25 86.6728 15.75 86.6728 15.3C86.6728 14.7 86.0699 12.45 85.0147 11.25ZM41.6029 17.4C41.6029 17.1 42.3566 16.05 42.8088 15.6C43.261 15.15 44.0147 13.95 48.2353 13.95C52.4559 13.95 53.2096 16.2 53.2096 17.25C53.2096 18.15 52.7574 18.9 52.7574 18.9H41.3015C41.4522 18.9 41.6029 17.7 41.6029 17.4Z" fill="#1096D4"/>
<path d="M0 35.7H7.38603L10.7022 9.00005C10.7022 9.00005 10.7022 6.75005 12.2096 6.75005C13.7169 6.75005 24.1176 6.75005 24.1176 6.75005C24.1176 6.75005 25.9265 6.60005 26.3787 7.35005C26.8309 8.10005 27.1323 8.40005 26.8309 10.8C26.6801 13.2 26.5294 13.95 25.9265 15.3C25.3235 16.5 24.8713 17.4 21.7059 17.4C18.5404 17.4 15.0735 17.4 15.0735 17.4C15.0735 17.4 13.7169 17.55 13.114 18.3C12.511 19.05 12.0588 20.1 12.0588 21.3C12.0588 22.5 13.4154 24.3 14.7721 25.8C16.1287 27.15 23.364 35.55 23.364 35.55H32.7096L32.5588 34.8L21.4044 23.4H25.3235C25.3235 23.4 26.8309 23.4 28.3382 22.65C29.8456 21.9 32.4081 19.8 33.3125 15.9C34.2169 12.15 34.5184 10.35 34.5184 8.40005C34.5184 6.45005 34.0662 4.20005 33.011 2.70005C31.9559 1.35005 29.6949 0.300049 28.9412 0.300049C28.1875 0.300049 9.04412 0.300049 9.04412 0.300049C9.04412 0.300049 6.63235 0.300049 5.42647 1.65005C4.22059 3.00005 3.91912 4.20005 3.16544 10.65C2.41176 17.1 0 35.7 0 35.7Z" fill="#1096D4"/>
</g>
<defs>
<clipPath id="clip0_299_723">
<rect width="205" height="36" fill="white"/>
</clipPath>
</defs>
</svg>
