<svg xmlns="http://www.w3.org/2000/svg" width="353" height="56" fill="none"><path fill="#000" fill-rule="evenodd" d="M351.163 18.628c-1.113-1.149-3.047-1.917-5.158-1.917h-14.142v4.24h12.251c.822 0 1.926.15 2.659 1.06.619.777.716 1.634.716 2.367v1.731h-10.803c-1.298 0-2.994.088-4.576 1.44-1.298 1.157-1.837 2.606-1.978 4.098-.106.672-.106 1.299-.106 1.979 0 .583 0 1.298.106 2.067.141 1.643.671 3.524 2.023 4.681 1.448 1.263 3.171 1.263 4.531 1.263H353V24.52c-.008-2.747-.839-4.778-1.837-5.891Zm-3.674 18.76h-9.257c-.725 0-1.405-.379-1.785-.768-.671-.671-.768-2.022-.768-2.747 0-1.793.433-2.455.618-2.703.627-.777 1.634-.821 2.023-.821h9.169v7.04Zm-28.557-8.77 10.184-11.916h-6.51l-10.043 12.11 10.662 12.834h7.004l-.097-.141-11.2-12.887Zm-81.776-12.199c-2.976 0-7.331.089-10.087 2.641-2.826 2.66-3.171 7.385-3.171 10.185 0 2.552.23 7.287 3.171 9.99 2.756 2.517 7.111 2.703 10.087 2.703 2.862 0 7.385-.195 10.043-2.703 1.838-1.74 3.18-4.876 3.18-10.123 0-2.667-.282-7.384-3.18-10.043-2.694-2.561-7.084-2.65-10.043-2.65Zm7.579 12.773c0 2.173 0 4.575-1.687 6.413-1.634 1.828-3.807 2.066-5.892 2.066-1.969 0-4.381-.238-5.98-2.066-1.536-1.785-1.589-4.346-1.589-6.413 0-1.599 0-4.779 1.545-6.563 1.537-1.784 4.249-1.979 6.024-1.979 1.979 0 4.346.195 5.936 1.979 1.749 1.934 1.643 4.734 1.643 6.563Zm52.194 8.197h-6.81c-2.023 0-3.18-.468-3.949-1.484-.927-1.157-1.015-2.8-1.015-4.443V16.71h-5.486v16.394c0 3.427 1.104 5.3 2.403 6.51 1.978 1.793 4.381 2.04 6.943 2.04h13.417V16.711h-5.503v20.678Zm9.08 4.257h5.494V16.702h-5.494v24.944Zm-35.323-14.963h-11.854v-9.981h-5.511v24.944h5.511V30.941h11.854v10.705h5.503V16.702h-5.503v9.981Zm-59.322-9.981h-13.17v32.894h5.45v-7.959h6.952c2.552 0 6.368-.194 8.727-3.568 1.784-2.562 1.969-6.13 1.969-9.398 0-2.747-.088-6.616-2.596-9.222-2.412-2.517-5.742-2.747-7.332-2.747Zm3.233 18.381c-.627.972-1.979 2.306-4.734 2.306h-6.228V20.942h6.51c2.465 0 4.099 1.21 4.832 2.8.238.671.627 1.987.627 5.406.009 3.665-.521 5.158-1.007 5.935ZM107.4 16.42c-2.941 0-7.331.089-10.034 2.65-2.888 2.65-3.233 7.367-3.233 10.167 0 2.553.239 7.287 3.233 9.99 2.703 2.517 7.093 2.703 10.034 2.703 2.889 0 7.376-.194 10.088-2.703 1.828-1.74 3.179-4.876 3.179-10.122 0-2.668-.335-7.385-3.179-10.035-2.756-2.561-7.084-2.65-10.088-2.65Zm7.579 12.773c0 2.173 0 4.575-1.643 6.413-1.643 1.828-3.851 2.066-5.936 2.066-1.987 0-4.337-.238-5.979-2.066-1.537-1.785-1.6-4.346-1.6-6.413 0-1.599 0-4.779 1.6-6.563 1.536-1.784 4.195-1.979 5.979-1.979 1.979 0 4.39.195 5.98 1.979 1.749 1.934 1.599 4.734 1.599 6.563Zm50.118 8.197h-6.81c-2.014 0-3.127-.468-3.957-1.484-.866-1.157-1.007-2.8-1.007-4.443V16.71h-5.485v16.394c0 3.427 1.104 5.3 2.411 6.51 1.97 1.793 4.381 2.04 6.978 2.04h13.364V16.711h-5.494v20.678Zm7.915-16.447h8.629v20.704h5.503V20.942h8.63v-4.24h-22.762v4.24ZM140.4 28.856v-.15c1.299-.141 2.27-.822 2.792-1.44.574-.733 1.157-1.934 1.157-4.204 0-1.502-.274-3.48-1.634-4.832-1.449-1.387-3.375-1.528-5.168-1.528h-14.221v4.24h12.154c.389 0 1.59.044 2.315.68.432.336.865 1.007.865 2.164 0 1.21-.433 1.89-.812 2.226-.681.671-1.405.671-2.217.671h-12.066v4.258h11.871c.521 0 1.581.035 2.314.565.963.68 1.069 1.634 1.069 2.509 0 1.448-.441 2.27-.865 2.658-.681.672-1.652.716-2.571.716h-12.49v4.257H137.6c1.599 0 3.48-.106 4.973-1.51.928-.813 1.943-2.562 1.943-5.503 0-2.253-.636-3.604-1.316-4.337-.538-.68-1.439-1.29-2.8-1.44ZM81.829 16.702H68.474v24.944h5.503V20.942h6.8c2.024 0 3.145.486 3.958 1.493.874 1.166 1.007 2.8 1.007 4.443v14.768h5.503V25.235c0-3.419-1.113-5.309-2.411-6.51-1.979-1.793-4.39-2.023-7.005-2.023Z" clip-rule="evenodd"/><path fill="#72BE44" fill-rule="evenodd" d="M28.628 52.21a58.152 58.152 0 0 1-3.754-1.943c-1.555.583-3.048 1.184-4.567 1.546-1.979.477-1.537-.927-.724-2.597.742-1.501 2.685-4.549 4.743-6.995 2.941-3.516 4.514-5.159 8.18-1.528a36.965 36.965 0 0 1 3.515 4.151 64.957 64.957 0 0 0 2.217-1.36c-1.714-2.818-3.657-5.512-5.706-7.561-1.025-1.034-2.244-2.067-3.701-2.094-1.608 0-3.295 1.484-4.7 3.11-2.534 2.932-5.096 6.554-6.969 10.281-.821 1.634-2.508 4.805-2.155 6.722.221 1.316 1.422 1.66 2.844 1.581 3.383-.15 7.773-1.934 10.777-3.312Z" clip-rule="evenodd"/><path fill="#72BE44" fill-rule="evenodd" d="M8.824 38.07a71.329 71.329 0 0 0 5.468 4.928c.645.53 1.29 1.033 1.952 1.52.547.432 1.122.865 1.678 1.262.433-.768.875-1.545 1.37-2.296a72.57 72.57 0 0 1-9.832-9.407 60.532 60.532 0 0 0-.636 3.992ZM42.69 53.2v.442a2.17 2.17 0 0 1-.354 1.077c-.83 1.166-3.109.857-4.354.654-2.72-.433-5.742-1.581-7.88-2.491-3.223-1.378-6.474-3.189-9.618-5.29a52.95 52.95 0 0 1 1.395-2.165 48.754 48.754 0 0 0 2.261 1.546c3.728 2.438 7.765 4.522 12.022 5.9.91.3 3.083 1.122 3.79.239.37-.46.105-1.414-.363-2.43-.636-1.386-1.678-2.897-2.022-3.453.689-.45 1.378-.936 2.04-1.387.804 1.413 1.59 2.87 2.2 4.39.335.795.82 1.917.883 2.968ZM50.702 36.32a48.23 48.23 0 0 1-2.994 3.02c.07 1.644.168 3.278.044 4.85-.16 2.05-1.325 1.193-2.668-.106-1.201-1.184-3.471-3.984-5.14-6.713-2.403-3.913-3.463-5.945 1.104-8.312a34.523 34.523 0 0 1 5.008-2.102c-.203-.84-.398-1.705-.627-2.544-3.162.777-6.325 1.802-8.86 3.136-1.307.662-2.667 1.51-3.118 2.906-.512 1.528.38 3.63 1.466 5.459 1.98 3.356 4.62 6.933 7.544 9.875 1.29 1.29 3.754 3.886 5.688 4.151 1.316.186 2.014-.856 2.376-2.234.866-3.304.54-8.065.177-11.386Z" clip-rule="evenodd"/><path fill="#72BE44" fill-rule="evenodd" d="M31.251 50.939c2.182-1.122 4.302-2.394 6.333-3.71.69-.45 1.378-.936 2.04-1.387.584-.415 1.158-.812 1.714-1.219a66.301 66.301 0 0 1-1.766-2.031 73.976 73.976 0 0 1-11.898 6.536 52.116 52.116 0 0 0 3.577 1.81Zm26.375-25.916v.124c-.026 1.086-.636 2.376-1.05 3.17-1.246 2.491-3.278 5.018-4.788 6.784-2.297 2.677-5.017 5.247-7.959 7.597a63.985 63.985 0 0 1-1.607-1.988c.724-.565 1.448-1.121 2.155-1.696 3.462-2.844 6.651-6.068 9.283-9.725.566-.786 2.014-2.597 1.405-3.56-.327-.494-1.316-.556-2.42-.415-1.493.186-3.251.716-3.87.875-.229-.804-.45-1.599-.68-2.385 1.59-.345 3.198-.627 4.815-.742 1.316-.097 3.506-.318 4.39.874.23.31.309.68.326 1.087ZM42.522 10.245a52.936 52.936 0 0 1 1.934 3.807c1.581.442 3.136.84 4.593 1.458 1.89.786.715 1.643-.91 2.508-1.493.804-4.831 2.111-7.932 2.862-4.416 1.087-6.66 1.484-7.499-3.621a35.644 35.644 0 0 1-.433-5.441 43.373 43.373 0 0 0-2.597-.204c-.256 3.269-.256 6.616.212 9.47.23 1.457.61 3.02 1.785 3.895 1.29.954 3.542.742 5.617.265 3.763-.866 7.941-2.288 11.624-4.187 1.617-.84 4.832-2.394 5.68-4.152.574-1.2-.185-2.199-1.378-2.968-2.844-1.845-7.437-3.011-10.697-3.692Z" clip-rule="evenodd"/><path fill="#72BE44" fill-rule="evenodd" d="M50.312 33.423a77.87 77.87 0 0 0-1.545-7.234c-.23-.804-.451-1.6-.68-2.385-.204-.69-.416-1.352-.628-2.014a46.84 46.84 0 0 1-2.464 1.05c1.263 4.444 2.084 9.002 2.49 13.436a53.76 53.76 0 0 0 2.827-2.853ZM33.892 2.79c-.583.15-.919 1.078-1.13 2.173-.301 1.51-.345 3.365-.38 4.001a57.86 57.86 0 0 0-2.465-.08c.159-1.624.389-3.267.786-4.866.31-1.28.795-3.454 2.2-3.922 1.342-.46 3.012 1.14 3.895 2.04 1.943 1.97 3.71 4.7 4.911 6.687 1.81 3.03 3.392 6.422 4.734 9.973-.715.3-1.528.618-2.402.918a60.499 60.499 0 0 0-.919-2.588c-1.599-4.196-3.665-8.25-6.298-11.898-.583-.777-1.837-2.73-2.932-2.438ZM15.414 10.024a52.004 52.004 0 0 1 4.195-.67c.892-1.396 1.75-2.757 2.783-3.958 1.333-1.555 1.784-.177 2.102 1.652.291 1.678.468 5.29.256 8.48-.353 4.593-.671 6.854-5.741 6.077a35.28 35.28 0 0 1-5.274-1.264c-.335.804-.67 1.6-.989 2.43 3.012 1.236 6.157 2.278 8.992 2.729 1.449.212 3.047.344 4.213-.521 1.308-.945 1.802-3.162 2.005-5.3.345-3.869.3-8.32-.362-12.428-.291-1.82-.76-5.37-2.155-6.73-.954-.928-2.129-.504-3.224.397-2.632 2.137-5.15 6.21-6.801 9.106Z" clip-rule="evenodd"/><path fill="#72BE44" fill-rule="evenodd" d="M39.677 9.724a71.473 71.473 0 0 0-7.296-.76 57.86 57.86 0 0 0-2.464-.079c-.707-.018-1.414-.026-2.103-.018.115.884.203 1.776.239 2.677 4.575.168 9.133.786 13.444 1.766a52.455 52.455 0 0 0-1.82-3.586ZM5.714 15.996c-.026.6.725 1.219 1.714 1.775 1.334.742 3.047 1.351 3.657 1.581-.292.795-.583 1.572-.848 2.34-1.475-.67-2.96-1.395-4.337-2.26-1.122-.698-3.021-1.829-3.039-3.313 0-1.44 2.014-2.544 3.136-3.109 2.456-1.263 5.565-2.129 7.826-2.65 3.418-.795 7.12-1.272 10.882-1.422.053.75.106 1.634.106 2.562-.91.008-1.81.044-2.72.097-4.443.238-8.922.954-13.18 2.358-.9.292-3.126.91-3.197 2.04ZM6.828 35.958c.16-1.404.389-2.8.671-4.23-1.024-1.282-2.066-2.554-2.87-3.887-1.06-1.767.38-1.767 2.208-1.502 1.678.247 5.123 1.166 8.082 2.385 4.213 1.74 6.263 2.738 3.966 7.375a35.811 35.811 0 0 1-2.835 4.647 56.63 56.63 0 0 0 1.978 1.704c2.12-2.49 4.072-5.202 5.353-7.782.671-1.307 1.272-2.79.83-4.213-.477-1.537-2.429-2.694-4.372-3.542-3.56-1.528-7.764-2.87-11.854-3.489-1.81-.291-5.3-.927-7.03-.026-1.167.627-1.123 1.89-.62 3.233 1.229 3.188 4.258 6.845 6.493 9.327Z" clip-rule="evenodd"/><path fill="#72BE44" fill-rule="evenodd" d="M14.053 12.595c-1.113 2.208-2.094 4.496-2.968 6.757-.292.795-.583 1.572-.848 2.34-.23.663-.45 1.343-.663 1.997.866.168 1.74.37 2.615.6a73.463 73.463 0 0 1 5.82-12.34 55.964 55.964 0 0 0-3.956.646Zm-4.585 34.51c.548.212 1.378-.327 2.191-1.086 1.104-1.043 2.217-2.518 2.632-3.012.645.53 1.29 1.033 1.952 1.519-1.095 1.219-2.243 2.42-3.48 3.462-.998.875-2.659 2.341-4.063 1.89-1.37-.45-1.767-2.711-1.97-3.957-.424-2.747-.265-5.988-.08-8.311.301-3.534 1.016-7.217 2.015-10.874.742.177 1.58.398 2.455.671-.256.875-.521 1.767-.75 2.642-1.149 4.345-1.847 8.85-1.838 13.373.009.936-.115 3.286.936 3.683Z" clip-rule="evenodd"/></svg>