<svg xmlns="http://www.w3.org/2000/svg" width="353" height="62" fill="none"><path fill="#2A48B5" d="M63.467 28.334c0 15.648-12.686 28.333-28.334 28.333S6.8 43.982 6.8 28.333C6.8 12.686 19.485 0 35.133 0c15.648 0 28.334 12.685 28.334 28.334Z"/><path fill="#000" d="M35.496 45.333V13.6h6.075l13.51 22.395h-3.22L65.144 13.6h6.03l.09 31.733h-6.89l-.046-21.17h1.27L54.99 41.978h-3.31L40.846 24.163h1.54v21.17h-6.89ZM93.255 45.333v-4.76l-.454-1.042v-8.523c0-1.511-.468-2.69-1.405-3.536-.907-.846-2.312-1.27-4.216-1.27-1.3 0-2.584.212-3.854.635-1.239.393-2.296.937-3.173 1.632l-2.538-4.941c1.33-.937 2.931-1.662 4.805-2.176a21.51 21.51 0 0 1 5.712-.77c3.717 0 6.603.876 8.659 2.628 2.055 1.753 3.082 4.488 3.082 8.206v13.917h-6.618Zm-7.435.363c-1.904 0-3.536-.317-4.896-.952-1.36-.665-2.403-1.556-3.128-2.675-.726-1.118-1.088-2.372-1.088-3.762 0-1.451.347-2.72 1.043-3.808.725-1.088 1.858-1.935 3.4-2.54 1.54-.634 3.55-.951 6.029-.951h6.483v4.125H87.95c-1.663 0-2.811.272-3.446.816a2.63 2.63 0 0 0-.906 2.04c0 .907.347 1.632 1.042 2.176.725.514 1.708.77 2.947.77 1.178 0 2.236-.271 3.173-.815.937-.574 1.617-1.405 2.04-2.493l1.088 3.264c-.514 1.571-1.45 2.765-2.81 3.58-1.36.817-3.113 1.225-5.26 1.225ZM106.274 45.333v-24.39h6.754v6.891l-.952-1.994c.726-1.723 1.889-3.022 3.491-3.899 1.602-.906 3.551-1.36 5.848-1.36v6.528a8.277 8.277 0 0 0-.816-.045 6.196 6.196 0 0 0-.77-.046c-1.935 0-3.506.56-4.715 1.678-1.179 1.088-1.768 2.795-1.768 5.123v11.514h-7.072ZM131.513 40.347l.181-8.614 11.379-10.79h8.432l-10.926 11.108-3.672 2.992-5.394 5.304Zm-5.849 4.986V11.696h7.073v33.637h-7.073Zm18.179 0-8.25-10.245 4.442-5.486 12.376 15.731h-8.568ZM166.678 45.696c-2.781 0-5.229-.544-7.345-1.632-2.085-1.088-3.702-2.569-4.85-4.443-1.149-1.904-1.723-4.065-1.723-6.482 0-2.448.559-4.61 1.677-6.483a12.001 12.001 0 0 1 4.67-4.443c1.964-1.088 4.186-1.632 6.664-1.632 2.387 0 4.533.514 6.437 1.541 1.934.998 3.461 2.448 4.579 4.352 1.118 1.874 1.677 4.126 1.677 6.755 0 .272-.015.59-.045.952-.03.333-.061.65-.091.952h-19.811v-4.125h16.094l-2.72 1.224c0-1.27-.257-2.373-.771-3.31a5.473 5.473 0 0 0-2.13-2.175c-.907-.544-1.965-.817-3.174-.817-1.209 0-2.282.273-3.218.817-.907.513-1.617 1.254-2.131 2.22-.514.938-.771 2.056-.771 3.356v1.088c0 1.33.287 2.508.862 3.536a6.13 6.13 0 0 0 2.493 2.312c1.088.513 2.357.77 3.808.77 1.299 0 2.433-.196 3.4-.59a8.274 8.274 0 0 0 2.72-1.767l3.763 4.08c-1.119 1.27-2.524 2.252-4.216 2.947-1.693.665-3.642.997-5.848.997ZM193.146 45.696c-2.871 0-5.108-.725-6.709-2.176-1.602-1.481-2.403-3.672-2.403-6.573V15.549h7.072v21.307c0 1.027.272 1.828.816 2.403.544.544 1.284.816 2.221.816 1.118 0 2.071-.303 2.856-.907l1.904 4.987c-.725.513-1.602.906-2.629 1.178a13.23 13.23 0 0 1-3.128.363Zm-12.875-18.768v-5.44h16.91v5.44h-16.91ZM203.372 45.333V13.6h13.736c2.841 0 5.289.468 7.344 1.405 2.055.907 3.642 2.222 4.76 3.944 1.118 1.723 1.677 3.778 1.677 6.165 0 2.358-.559 4.398-1.677 6.12-1.118 1.723-2.705 3.053-4.76 3.99-2.055.907-4.503 1.36-7.344 1.36h-9.656l3.264-3.31v12.06h-7.344Zm7.344-11.242-3.264-3.491h9.248c2.267 0 3.959-.484 5.077-1.45 1.118-.968 1.678-2.313 1.678-4.035 0-1.753-.56-3.113-1.678-4.08-1.118-.968-2.81-1.451-5.077-1.451h-9.248l3.264-3.49V34.09ZM236.076 45.333V11.696h7.072v33.637h-7.072ZM264.672 45.333v-4.76l-.453-1.042v-8.523c0-1.511-.469-2.69-1.406-3.536-.906-.846-2.312-1.27-4.216-1.27-1.299 0-2.584.212-3.853.635-1.239.393-2.297.937-3.173 1.632l-2.539-4.941c1.33-.937 2.931-1.662 4.805-2.176a21.511 21.511 0 0 1 5.712-.77c3.718 0 6.604.876 8.659 2.628 2.055 1.753 3.083 4.488 3.083 8.206v13.917h-6.619Zm-7.435.363c-1.904 0-3.536-.317-4.896-.952-1.36-.665-2.402-1.556-3.128-2.675-.725-1.118-1.088-2.372-1.088-3.762 0-1.451.348-2.72 1.043-3.808.725-1.088 1.859-1.935 3.4-2.54 1.541-.634 3.551-.951 6.029-.951h6.483v4.125h-5.712c-1.662 0-2.811.272-3.445.816a2.63 2.63 0 0 0-.907 2.04c0 .907.347 1.632 1.043 2.176.725.514 1.707.77 2.946.77 1.179 0 2.237-.271 3.174-.815.937-.574 1.617-1.405 2.04-2.493l1.088 3.264c-.514 1.571-1.451 2.765-2.811 3.58-1.36.817-3.113 1.225-5.259 1.225ZM289.655 45.696c-2.629 0-4.972-.529-7.027-1.587-2.055-1.088-3.672-2.584-4.85-4.488-1.149-1.904-1.723-4.065-1.723-6.482 0-2.448.574-4.61 1.723-6.483 1.178-1.904 2.795-3.385 4.85-4.443 2.055-1.088 4.398-1.632 7.027-1.632 2.569 0 4.805.544 6.709 1.632 1.904 1.058 3.31 2.584 4.216 4.579l-5.485 2.947c-.635-1.149-1.436-1.995-2.403-2.54a6.028 6.028 0 0 0-3.082-.815c-1.209 0-2.297.272-3.264.816a6.066 6.066 0 0 0-2.312 2.312c-.544.997-.816 2.206-.816 3.627 0 1.42.272 2.629.816 3.626a6.066 6.066 0 0 0 2.312 2.312c.967.544 2.055.816 3.264.816a6.304 6.304 0 0 0 3.082-.77c.967-.544 1.768-1.406 2.403-2.584l5.485 2.992c-.906 1.964-2.312 3.49-4.216 4.578-1.904 1.058-4.14 1.587-6.709 1.587ZM316.446 45.696c-2.78 0-5.228-.544-7.344-1.632-2.085-1.088-3.702-2.569-4.85-4.443-1.149-1.904-1.723-4.065-1.723-6.482 0-2.448.559-4.61 1.677-6.483a12.001 12.001 0 0 1 4.67-4.443c1.964-1.088 4.185-1.632 6.664-1.632 2.387 0 4.533.514 6.437 1.541 1.934.998 3.461 2.448 4.579 4.352 1.118 1.874 1.677 4.126 1.677 6.755 0 .272-.015.59-.045.952-.03.333-.061.65-.091.952h-19.811v-4.125h16.094l-2.72 1.224c0-1.27-.257-2.373-.771-3.31a5.47 5.47 0 0 0-2.131-2.175c-.906-.544-1.964-.817-3.173-.817s-2.282.273-3.219.817c-.906.513-1.617 1.254-2.13 2.22-.514.938-.771 2.056-.771 3.356v1.088c0 1.33.287 2.508.861 3.536a6.14 6.14 0 0 0 2.494 2.312c1.088.513 2.357.77 3.808.77 1.299 0 2.433-.196 3.4-.59a8.274 8.274 0 0 0 2.72-1.767l3.762 4.08c-1.118 1.27-2.523 2.252-4.216 2.947-1.692.665-3.641.997-5.848.997ZM341.147 45.696c-2.086 0-4.095-.242-6.03-.725-1.904-.514-3.415-1.149-4.533-1.904l2.357-5.078c1.119.695 2.433 1.27 3.944 1.723 1.542.423 3.053.635 4.534.635 1.632 0 2.78-.197 3.445-.59.695-.393 1.043-.937 1.043-1.632 0-.574-.272-.997-.816-1.27-.514-.301-1.209-.528-2.086-.68-.876-.15-1.843-.301-2.901-.452a40.51 40.51 0 0 1-3.128-.59 11.227 11.227 0 0 1-2.901-1.178 6.114 6.114 0 0 1-2.131-2.086c-.514-.876-.771-2.01-.771-3.4 0-1.541.439-2.901 1.315-4.08.907-1.178 2.206-2.1 3.899-2.765 1.692-.695 3.717-1.043 6.074-1.043 1.663 0 3.355.181 5.078.544 1.723.363 3.158.892 4.307 1.587l-2.358 5.032c-1.178-.695-2.372-1.164-3.581-1.405a15.302 15.302 0 0 0-3.446-.409c-1.571 0-2.72.212-3.445.635-.725.423-1.088.967-1.088 1.632 0 .605.257 1.058.771 1.36.544.302 1.254.544 2.13.726.877.18 1.829.347 2.856.498a23.41 23.41 0 0 1 3.174.59c1.058.272 2.01.664 2.856 1.178a5.747 5.747 0 0 1 2.131 2.04c.544.846.816 1.965.816 3.355 0 1.511-.454 2.856-1.36 4.035-.907 1.148-2.222 2.055-3.944 2.72-1.693.665-3.763.997-6.211.997Z"/><path fill="#486AE4" d="M29.467 46.467c0 8.137-6.597 14.733-14.734 14.733S0 54.604 0 46.467s6.596-14.733 14.733-14.733 14.734 6.596 14.734 14.733Z"/></svg>